<?xml version="1.0" standalone="no"?>
<!DOCTYPE svg PUBLIC "-//W3C//DTD SVG 20010904//EN"
 "http://www.w3.org/TR/2001/REC-SVG-20010904/DTD/svg10.dtd">
<svg version="1.0" xmlns="http://www.w3.org/2000/svg"
 width="260.000000pt" height="260.000000pt" viewBox="0 0 260.000000 260.000000"
 preserveAspectRatio="xMidYMid meet">
<metadata>
Created by potrace 1.11, written by Peter Selinger 2001-2013
</metadata>
<g transform="translate(0.000000,260.000000) scale(0.100000,-0.100000)"
fill="#000000" stroke="none">
<path d="M0 1300 l0 -1300 1300 0 1300 0 0 1300 0 1300 -1300 0 -1300 0 0
-1300z m1137 1068 c-3 -8 -6 -5 -6 6 -1 11 2 17 5 13 3 -3 4 -12 1 -19z m93
-117 c0 -9 -5 -23 -10 -31 -8 -11 -9 -8 -4 12 5 21 1 30 -19 43 -14 9 -28 23
-31 31 -3 9 9 4 29 -12 19 -14 35 -34 35 -43z m-134 -82 c4 -7 7 -25 6 -40 -1
-34 2 -35 36 -10 15 10 39 21 54 25 l27 6 -27 -53 c-15 -29 -28 -49 -30 -45
-2 4 4 22 12 40 9 17 15 33 13 34 -6 6 -71 -33 -80 -47 -6 -9 -5 -37 3 -73 7
-35 15 -54 20 -47 4 7 5 -9 3 -36 -4 -39 -1 -51 15 -66 29 -27 38 -3 12 33
-14 20 -16 28 -7 24 8 -3 19 -16 25 -30 9 -19 19 -24 46 -24 43 0 55 17 27 36
-12 8 -21 22 -21 31 0 25 31 53 58 53 27 0 72 -35 72 -56 0 -23 30 -3 65 43
19 24 35 49 37 55 4 11 104 29 113 20 3 -3 0 -11 -6 -18 -6 -8 -8 -21 -5 -30
4 -9 1 -23 -5 -30 -6 -8 -9 -14 -5 -14 4 0 0 -13 -9 -30 -18 -36 -46 -52 -66
-39 -7 5 -18 9 -24 9 -5 -1 -2 -5 8 -11 14 -8 15 -14 7 -24 -14 -17 7 -32 23
-16 13 13 57 15 57 2 0 -6 -4 -13 -10 -16 -5 -3 -10 -11 -10 -16 0 -12 38 -2
59 15 11 9 9 12 -10 17 -22 6 -21 7 7 8 35 1 69 33 61 56 -4 8 -2 14 2 12 5
-1 24 21 42 48 41 61 108 97 189 103 49 4 60 1 86 -22 16 -14 23 -26 17 -26
-7 0 -13 4 -13 9 0 12 -56 31 -89 31 -41 0 -124 -44 -164 -86 -39 -41 -46 -57
-23 -48 11 4 13 0 9 -15 -3 -12 -10 -18 -17 -14 -6 3 -3 -3 7 -14 21 -24 57
-20 64 8 8 30 133 10 175 -28 25 -23 5 -43 -43 -43 l-38 0 13 -30 c15 -36 51
-64 68 -54 8 5 9 2 5 -9 -3 -9 -2 -19 3 -22 5 -3 7 -12 3 -20 -3 -10 1 -15 15
-15 16 0 25 13 40 58 l20 57 -2 -82 c-1 -60 2 -83 11 -83 17 0 25 17 11 23
-20 8 13 6 42 -2 24 -7 23 -8 -15 -19 -22 -7 -46 -12 -52 -12 -7 0 -13 -2 -13
-4 0 -2 -3 -11 -6 -20 -4 -12 0 -16 15 -16 12 0 21 -6 21 -15 0 -8 -6 -14 -12
-12 -8 1 -15 -15 -19 -43 -3 -25 -7 -37 -7 -27 -1 10 -8 17 -14 14 -7 -2 -12
-11 -10 -21 2 -9 -4 -16 -12 -16 -17 0 -40 -36 -31 -49 10 -16 74 11 79 33 2
12 3 -7 1 -41 -2 -35 1 -61 5 -58 5 3 11 1 15 -5 3 -5 -1 -10 -9 -10 -19 0
-22 -35 -4 -46 7 -5 8 -3 3 7 -7 12 -6 12 7 1 19 -15 41 -72 29 -72 -5 0 -12
11 -15 25 -4 16 -13 25 -26 25 -23 0 -26 -10 -8 -28 9 -9 9 -12 0 -12 -7 0
-12 -16 -12 -40 0 -36 3 -40 24 -40 14 0 27 -4 30 -8 2 -4 -12 -7 -32 -6 -22
2 -27 0 -13 -3 16 -3 20 -7 12 -12 -14 -9 -5 -37 15 -45 15 -6 54 13 54 26 0
4 -10 9 -22 11 -20 4 -20 4 -3 5 11 1 26 -2 34 -7 11 -7 9 -14 -15 -34 -25
-22 -27 -27 -14 -43 13 -18 13 -18 -4 -3 -17 16 -22 15 -77 -12 -32 -16 -65
-29 -75 -29 -14 0 -15 -2 -3 -17 12 -14 12 -16 -1 -11 -9 3 -24 0 -35 -8 -17
-13 -17 -14 13 -25 37 -13 39 -20 11 -37 -15 -10 -19 -20 -15 -44 7 -47 35
-60 70 -33 11 8 25 15 30 15 6 0 -6 -12 -27 -27 -36 -26 -49 -53 -24 -53 21 0
72 -46 59 -54 -6 -3 -16 2 -21 13 -19 34 -98 52 -123 28 -17 -18 -88 -37 -168
-47 -36 -4 -81 -14 -100 -22 -45 -20 -134 -101 -105 -96 16 2 20 -3 22 -27 1
-20 0 -23 -4 -8 -5 25 -18 30 -28 12 -4 -6 -14 -8 -21 -5 -9 3 -41 -17 -80
-49 -63 -54 -96 -67 -110 -43 -4 7 -3 8 5 4 17 -11 85 33 160 101 61 56 64 61
67 111 4 51 3 53 -30 69 -44 20 -62 13 -69 -29 -16 -99 -20 -118 -28 -118 -4
0 -23 -23 -41 -50 -40 -60 -51 -48 -14 15 l26 44 -31 16 c-17 9 -37 14 -44 12
-7 -3 -16 -2 -21 2 -5 5 -22 11 -39 14 -26 4 -33 0 -58 -34 -15 -22 -35 -43
-45 -46 -9 -4 -25 -17 -35 -30 -25 -32 -53 -29 -72 7 -16 32 -22 66 -6 41 7
-10 13 -11 30 -2 11 7 21 16 21 21 0 6 6 10 13 10 6 -1 -3 -13 -21 -29 -46
-39 -28 -84 20 -48 9 8 18 19 20 27 2 7 11 22 21 32 9 10 17 25 17 33 0 18
-36 38 -52 29 -8 -5 -9 -2 -5 10 11 28 -1 36 -33 24 -32 -11 -60 2 -60 26 0 7
3 7 8 -2 13 -19 67 -4 98 29 27 28 27 29 6 29 -12 0 -22 4 -22 9 0 9 -58 36
-64 30 -3 -2 -18 -40 -36 -84 -17 -44 -46 -102 -65 -130 -18 -27 -52 -81 -74
-120 -22 -38 -40 -65 -40 -60 0 6 20 44 44 85 65 110 125 228 125 242 0 7 -12
0 -26 -16 -14 -15 -28 -26 -31 -23 -3 4 2 29 11 57 9 28 14 55 11 60 -4 6 -1
10 6 10 20 0 59 41 59 62 0 28 -32 22 -81 -16 -62 -47 -180 -118 -186 -112 -3
3 30 28 73 57 69 44 74 50 45 45 -19 -3 -43 -14 -53 -23 -29 -26 -21 -4 10 26
15 15 50 38 79 52 29 13 52 28 53 32 0 5 -4 5 -10 2 -6 -3 -10 -1 -10 4 0 6 6
11 13 11 8 0 7 4 -3 10 -15 10 -13 11 29 13 13 1 26 8 28 15 3 8 -9 12 -44 12
-39 0 -55 -6 -83 -31 -32 -28 -33 -30 -10 -24 l25 6 -25 -16 -25 -16 35 6 c25
5 31 3 20 -4 -8 -5 -32 -13 -52 -16 -27 -5 -47 -18 -72 -47 -53 -61 -54 -105
-2 -61 21 18 21 18 2 -4 -19 -23 -56 -32 -56 -14 0 21 22 65 45 93 30 35 32
58 6 58 -11 0 -23 5 -26 10 -7 12 -52 13 -59 2 -2 -4 -40 -8 -83 -9 -81 -1
-73 3 47 23 25 4 62 18 83 32 20 14 40 23 43 20 2 -3 -10 -15 -28 -27 -29 -18
-30 -21 -11 -21 12 0 24 4 28 10 3 5 20 19 38 31 l32 22 -33 -35 c-33 -35 -33
-48 0 -48 17 0 71 51 68 65 -1 4 7 13 17 21 17 13 17 13 -4 14 -13 0 -23 -5
-23 -11 0 -7 -9 -9 -24 -5 -12 3 -26 3 -30 -1 -7 -7 -77 -16 -139 -17 -21 0
-44 7 -53 16 -14 14 -12 18 16 42 17 14 38 26 46 26 8 0 14 4 14 10 0 5 11 12
25 16 14 3 26 14 26 23 1 9 3 26 4 38 1 12 -2 20 -7 17 -15 -9 -77 17 -124 52
-24 19 -49 34 -56 34 -17 0 -108 61 -108 72 0 6 7 7 16 4 9 -3 27 -9 42 -13
22 -5 24 -4 17 13 -26 61 -44 123 -44 149 1 20 3 23 6 10 10 -48 34 -121 42
-134 7 -11 14 -10 37 6 47 32 61 37 27 9 -46 -38 -35 -61 35 -75 103 -21 163
-9 211 43 24 25 24 26 4 26 -36 0 -53 -11 -53 -34 0 -20 -1 -20 -14 4 -7 14
-9 29 -4 34 15 18 8 24 -39 32 -27 4 -52 9 -58 10 -5 1 -16 2 -22 3 -7 0 -13
6 -13 11 0 6 19 10 43 10 39 0 43 3 43 23 -1 18 4 22 25 19 35 -3 65 29 50 55
-9 16 -11 16 -12 -7 l-1 -25 -7 26 c-5 14 -14 36 -21 48 -9 18 -9 22 0 16 8
-5 11 -3 8 6 -3 8 -11 14 -18 14 -16 0 -32 52 -25 82 3 12 16 35 30 51 23 27
30 30 90 30 50 0 69 -5 78 -17 7 -9 23 -25 37 -35 14 -10 17 -16 8 -13 -10 4
-18 3 -18 -2 0 -5 8 -11 18 -13 33 -9 52 33 36 77 -6 14 -10 13 -32 -7 l-25
-23 16 24 c15 23 15 26 0 43 -9 10 -22 18 -30 18 -7 0 -13 4 -13 10 0 5 8 7
18 3 29 -10 -37 54 -69 67 -16 7 -26 16 -23 21 9 15 20 11 66 -24 l44 -34 88
84 88 83 -6 45 c-4 25 -4 49 -1 55 8 13 32 13 41 -1z m504 -93 c0 -3 -4 -8
-10 -11 -5 -3 -10 -1 -10 4 0 6 5 11 10 11 6 0 10 -2 10 -4z m433 -266 c-3
-12 -8 -19 -11 -16 -5 6 5 36 12 36 2 0 2 -9 -1 -20z m-1111 -32 c-7 -7 -12
-8 -12 -2 0 14 12 26 19 19 2 -3 -1 -11 -7 -17z m1167 -252 c-2 -2 -22 -6 -44
-9 -28 -5 -34 -4 -20 3 19 8 73 14 64 6z m-19 -390 c0 -3 -9 -1 -20 6 -11 7
-20 21 -20 32 0 16 3 15 20 -7 11 -14 20 -28 20 -31z m-1640 -206 c-13 -8 -13
-10 2 -10 9 0 19 -4 23 -10 3 -5 -8 -5 -26 2 -23 8 -27 13 -17 19 7 5 18 9 23
9 6 0 3 -5 -5 -10z m150 5 c0 -2 -15 -12 -32 -20 l-33 -16 25 20 c24 20 40 26
40 16z m1370 -235 c0 -5 -5 -10 -11 -10 -5 0 -7 5 -4 10 3 6 8 10 11 10 2 0 4
-4 4 -10z m-93 -25 c24 -25 7 -30 -18 -6 -13 12 -17 21 -10 21 7 0 19 -7 28
-15z m383 1 c0 -2 -7 -7 -16 -10 -8 -3 -12 -2 -9 4 6 10 25 14 25 6z m-575
-26 c10 -11 16 -20 13 -20 -3 0 -13 9 -23 20 -10 11 -16 20 -13 20 3 0 13 -9
23 -20z m242 -42 c-3 -7 -5 -2 -5 12 0 14 2 19 5 13 2 -7 2 -19 0 -25z m124
-15 c13 -16 12 -17 -3 -4 -17 13 -22 21 -14 21 2 0 10 -8 17 -17z m-134 -25
c-3 -8 -6 -5 -6 6 -1 11 2 17 5 13 3 -3 4 -12 1 -19z m-417 -123 c14 -19 14
-19 -2 -6 -10 7 -18 18 -18 24 0 6 1 8 3 6 1 -2 9 -13 17 -24z m55 6 c-3 -6
-11 -11 -17 -11 -6 0 -6 6 2 15 14 17 26 13 15 -4z m-779 -103 c-8 -19 -22
-40 -30 -47 -8 -7 -2 10 12 38 30 56 39 61 18 9z m-45 -1 c-10 -9 -11 -8 -5 6
3 10 9 15 12 12 3 -3 0 -11 -7 -18z"/>
<path d="M971 1971 c-66 -64 -85 -91 -61 -91 6 0 10 6 10 14 0 8 15 24 34 35
45 28 58 27 16 -1 -46 -32 -51 -50 -11 -46 17 2 30 6 29 8 -6 11 34 55 50 55
13 0 18 10 20 48 1 26 -2 47 -6 47 -5 0 -41 -31 -81 -69z"/>
<path d="M1491 2013 c-14 -11 -23 -32 -25 -55 l-4 -36 32 10 c43 15 54 27 36
38 -13 8 -12 10 3 10 13 0 17 6 15 22 -4 29 -29 34 -57 11z"/>
<path d="M1081 1952 c-1 -19 -5 -31 -11 -27 -5 3 -21 -6 -35 -21 l-26 -28 23
-17 c29 -22 38 -16 38 24 0 24 3 28 10 17 15 -24 24 15 12 53 l-10 32 -1 -33z"/>
<path d="M1272 1958 c-16 -16 -16 -61 1 -56 6 3 13 14 15 26 3 21 32 32 32 12
0 -5 5 -10 12 -10 6 0 3 9 -7 20 -21 23 -36 25 -53 8z"/>
<path d="M1427 1934 c-4 -4 -7 -14 -7 -23 0 -11 3 -12 11 -4 6 6 10 16 7 23
-2 6 -7 8 -11 4z"/>
<path d="M1491 1919 c-19 -7 -22 -12 -12 -22 13 -13 42 0 49 21 4 14 -4 14
-37 1z"/>
<path d="M1800 1881 c0 -15 60 -51 85 -51 11 0 26 4 34 9 11 7 8 12 -12 26
-33 21 -107 32 -107 16z"/>
<path d="M1092 1868 c-14 -14 -16 -28 -3 -28 5 0 11 9 14 20 6 23 5 24 -11 8z"/>
<path d="M1311 1854 c-10 -22 -9 -25 6 -22 10 2 19 13 21 26 5 30 -12 28 -27
-4z"/>
<path d="M1368 1873 c7 -3 16 -2 19 1 4 3 -2 6 -13 5 -11 0 -14 -3 -6 -6z"/>
<path d="M1657 1873 c-12 -12 -7 -22 8 -17 8 4 15 10 15 15 0 11 -14 12 -23 2z"/>
<path d="M1783 1858 c4 -12 1 -18 -9 -18 -9 0 -14 -5 -12 -12 6 -18 28 -22 28
-5 0 9 5 17 11 19 7 2 4 10 -7 18 -16 14 -17 13 -11 -2z"/>
<path d="M945 1850 c-3 -5 -2 -10 4 -10 5 0 13 5 16 10 3 6 2 10 -4 10 -5 0
-13 -4 -16 -10z"/>
<path d="M991 1831 c-8 -14 -7 -20 4 -25 9 -3 12 -12 8 -23 -6 -16 -5 -16 10
-4 10 8 15 16 12 19 -3 3 0 11 6 18 6 7 8 18 4 24 -10 16 -33 12 -44 -9z"/>
<path d="M1208 1843 c7 -3 16 -2 19 1 4 3 -2 6 -13 5 -11 0 -14 -3 -6 -6z"/>
<path d="M1476 1805 c-15 -19 -22 -35 -15 -35 12 0 30 20 50 53 18 31 -8 18
-35 -18z"/>
<path d="M1695 1830 c3 -5 11 -10 16 -10 6 0 7 5 4 10 -3 6 -11 10 -16 10 -6
0 -7 -4 -4 -10z"/>
<path d="M1090 1820 c0 -5 5 -10 11 -10 5 0 7 5 4 10 -3 6 -8 10 -11 10 -2 0
-4 -4 -4 -10z"/>
<path d="M1213 1823 c-19 -7 -16 -43 3 -43 8 0 13 4 9 9 -3 5 -1 12 5 16 23
15 10 29 -17 18z"/>
<path d="M1812 1813 c2 -10 11 -19 21 -21 16 -3 17 -1 7 17 -13 25 -33 28 -28
4z"/>
<path d="M1050 1800 c-12 -23 2 -27 19 -6 8 9 8 16 2 20 -6 4 -15 -3 -21 -14z"/>
<path d="M1440 1810 c0 -5 5 -10 11 -10 5 0 7 5 4 10 -3 6 -8 10 -11 10 -2 0
-4 -4 -4 -10z"/>
<path d="M1750 1795 c0 -8 4 -15 10 -15 5 0 7 7 4 15 -4 8 -8 15 -10 15 -2 0
-4 -7 -4 -15z"/>
<path d="M733 1788 c1 -7 -4 -37 -12 -66 -18 -70 -8 -80 55 -58 55 19 57 19
50 7 -3 -5 1 -14 9 -21 12 -10 15 -10 15 3 0 8 -7 20 -15 27 -8 7 -12 17 -9
22 7 11 -42 88 -55 88 -5 0 -16 3 -24 6 -9 3 -14 0 -14 -8z"/>
<path d="M790 1796 c0 -2 8 -10 18 -17 15 -13 16 -12 3 4 -13 16 -21 21 -21
13z"/>
<path d="M830 1781 c16 -31 32 -36 18 -7 -6 14 -15 26 -20 26 -5 0 -4 -9 2
-19z"/>
<path d="M1350 1790 c0 -5 5 -10 10 -10 6 0 10 5 10 10 0 6 -4 10 -10 10 -5 0
-10 -4 -10 -10z"/>
<path d="M1565 1790 c-32 -8 -32 -9 1 -16 12 -2 27 3 34 11 13 16 11 17 -35 5z"/>
<path d="M702 1773 c-7 -12 -12 -34 -11 -50 l1 -28 14 34 c18 41 15 78 -4 44z"/>
<path d="M1316 1774 c-8 -21 -8 -24 3 -24 12 0 22 28 12 35 -5 3 -12 -2 -15
-11z"/>
<path d="M1090 1770 c0 -5 5 -10 10 -10 6 0 10 5 10 10 0 6 -4 10 -10 10 -5 0
-10 -4 -10 -10z"/>
<path d="M1730 1765 c0 -8 4 -15 10 -15 5 0 7 7 4 15 -4 8 -8 15 -10 15 -2 0
-4 -7 -4 -15z"/>
<path d="M1150 1760 c0 -5 5 -10 10 -10 6 0 10 5 10 10 0 6 -4 10 -10 10 -5 0
-10 -4 -10 -10z"/>
<path d="M1204 1752 c-12 -9 -24 -29 -26 -45 -4 -22 -3 -25 8 -16 17 14 18 -3
2 -20 -11 -10 -10 -11 4 -6 19 7 31 32 22 46 -3 5 -2 9 3 9 4 0 8 11 8 25 0
14 0 25 0 25 0 0 -10 -8 -21 -18z"/>
<path d="M1800 1760 c0 -5 5 -10 10 -10 6 0 10 5 10 10 0 6 -4 10 -10 10 -5 0
-10 -4 -10 -10z"/>
<path d="M955 1740 c-3 -5 -1 -10 4 -10 6 0 11 5 11 10 0 6 -2 10 -4 10 -3 0
-8 -4 -11 -10z"/>
<path d="M1842 1738 c6 -16 36 -34 44 -25 9 9 -15 37 -33 37 -8 0 -13 -5 -11
-12z"/>
<path d="M840 1733 c0 -5 7 -18 15 -29 12 -16 14 -16 15 -3 0 9 -7 22 -15 29
-8 7 -15 8 -15 3z"/>
<path d="M1094 1710 c3 -18 6 -39 6 -46 0 -8 9 -14 20 -14 18 0 26 18 20 45
-1 6 -3 17 -4 25 -2 8 -13 17 -26 18 -21 3 -22 1 -16 -28z"/>
<path d="M1027 1724 c-3 -4 0 -13 8 -20 18 -19 26 -18 18 3 -4 11 -3 14 5 9 7
-4 12 -2 12 3 0 12 -33 15 -43 5z"/>
<path d="M1305 1720 c-3 -5 -2 -10 4 -10 5 0 13 5 16 10 3 6 2 10 -4 10 -5 0
-13 -4 -16 -10z"/>
<path d="M1600 1720 c-13 -8 -12 -10 3 -10 9 0 17 5 17 10 0 12 -1 12 -20 0z"/>
<path d="M661 1708 c0 -7 4 -22 9 -33 8 -18 9 -17 9 7 1 15 -3 30 -9 33 -5 3
-10 0 -9 -7z"/>
<path d="M890 1710 c0 -17 22 -22 36 -9 11 12 9 14 -11 15 -14 1 -25 -2 -25
-6z"/>
<path d="M1757 1714 c-5 -6 26 -73 34 -74 3 0 14 6 24 14 19 14 19 15 2 34
-18 20 -52 34 -60 26z"/>
<path d="M1667 1703 c-4 -3 -7 -11 -7 -17 0 -6 5 -5 12 2 6 6 9 14 7 17 -3 3
-9 2 -12 -2z"/>
<path d="M1001 1686 c-10 -12 -9 -17 6 -26 15 -9 12 -10 -16 -6 -19 4 -33 5
-30 3 25 -18 59 -36 58 -30 -3 13 12 43 22 43 5 0 9 -8 9 -17 0 -15 2 -16 10
-3 7 11 4 17 -13 25 -12 5 -25 13 -28 18 -3 4 -11 1 -18 -7z"/>
<path d="M1572 1681 c-11 -6 -10 -10 1 -19 10 -9 17 -7 30 8 16 19 16 20 -1
20 -9 0 -23 -4 -30 -9z"/>
<path d="M1740 1681 c0 -6 5 -11 11 -11 5 0 8 -4 4 -9 -3 -5 -1 -12 5 -16 16
-10 12 21 -5 35 -10 9 -15 9 -15 1z"/>
<path d="M876 1671 c-12 -5 -15 -10 -9 -14 6 -4 16 0 23 8 14 17 13 17 -14 6z"/>
<path d="M920 1671 c0 -17 18 -21 24 -6 3 9 0 15 -9 15 -8 0 -15 -4 -15 -9z"/>
<path d="M1840 1650 c0 -5 -6 -10 -14 -10 -7 0 -19 -7 -26 -15 -15 -18 -16
-18 37 -2 39 12 41 14 23 25 -12 7 -20 8 -20 2z"/>
<path d="M1890 1650 c0 -5 5 -10 11 -10 5 0 7 5 4 10 -3 6 -8 10 -11 10 -2 0
-4 -4 -4 -10z"/>
<path d="M1950 1650 c-13 -8 -12 -10 3 -10 9 0 17 5 17 10 0 12 -1 12 -20 0z"/>
<path d="M896 1641 c-3 -5 0 -11 7 -14 8 -3 14 1 14 9 0 16 -13 19 -21 5z"/>
<path d="M950 1633 c0 -13 29 -38 35 -31 3 3 -4 13 -15 23 -11 10 -20 13 -20
8z"/>
<path d="M1726 1624 c-6 -16 12 -18 32 -5 11 6 9 9 -7 14 -12 3 -22 -1 -25 -9z"/>
<path d="M1230 1620 c-12 -8 -11 -10 7 -10 12 0 25 5 28 10 8 13 -15 13 -35 0z"/>
<path d="M1495 1620 c-3 -5 -2 -10 4 -10 5 0 13 5 16 10 3 6 2 10 -4 10 -5 0
-13 -4 -16 -10z"/>
<path d="M1900 1619 c0 -5 5 -7 10 -4 6 3 10 8 10 11 0 2 -4 4 -10 4 -5 0 -10
-5 -10 -11z"/>
<path d="M1940 1620 c0 -12 8 -12 35 0 18 8 17 9 -7 9 -16 1 -28 -3 -28 -9z"/>
<path d="M925 1610 c-4 -6 -3 -16 3 -22 6 -6 12 -6 17 2 4 6 3 16 -3 22 -6 6
-12 6 -17 -2z"/>
<path d="M730 1605 c0 -2 10 -10 23 -16 20 -11 21 -11 8 4 -13 16 -31 23 -31
12z"/>
<path d="M1030 1590 c0 -5 7 -10 15 -10 8 0 15 5 15 10 0 6 -7 10 -15 10 -8 0
-15 -4 -15 -10z"/>
<path d="M1365 1590 c4 -6 11 -8 16 -5 14 9 11 15 -7 15 -8 0 -12 -5 -9 -10z"/>
<path d="M1510 1590 c-12 -8 -11 -10 7 -10 12 0 25 5 28 10 8 13 -15 13 -35 0z"/>
<path d="M1932 1583 c4 -21 33 -25 33 -3 0 8 -8 16 -18 18 -14 3 -18 -1 -15
-15z"/>
<path d="M1740 1575 c0 -19 9 -19 34 0 19 14 19 15 -7 15 -17 0 -27 -5 -27
-15z"/>
<path d="M1010 1570 c0 -5 5 -10 11 -10 5 0 7 5 4 10 -3 6 -8 10 -11 10 -2 0
-4 -4 -4 -10z"/>
<path d="M1125 1570 c-3 -5 -1 -10 4 -10 6 0 11 5 11 10 0 6 -2 10 -4 10 -3 0
-8 -4 -11 -10z"/>
<path d="M1697 1566 c-6 -15 1 -26 15 -26 4 0 8 9 8 20 0 23 -15 27 -23 6z"/>
<path d="M1818 1568 c-37 -13 -36 -28 1 -28 46 0 64 10 50 26 -13 16 -14 16
-51 2z"/>
<path d="M1528 1563 c6 -2 18 -2 25 0 6 3 1 5 -13 5 -14 0 -19 -2 -12 -5z"/>
<path d="M1468 1553 c7 -3 16 -2 19 1 4 3 -2 6 -13 5 -11 0 -14 -3 -6 -6z"/>
<path d="M1175 1537 c-17 -13 -16 -15 12 -29 17 -9 36 -12 43 -8 8 5 7 9 -4
13 -9 4 -13 13 -10 22 8 19 -15 20 -41 2z"/>
<path d="M1360 1541 c0 -12 29 -35 36 -28 11 10 -5 37 -21 37 -8 0 -15 -4 -15
-9z"/>
<path d="M1492 1542 c-54 -16 -11 -41 45 -27 20 5 23 8 13 20 -13 16 -21 17
-58 7z"/>
<path d="M785 1530 c3 -5 8 -10 11 -10 2 0 4 5 4 10 0 6 -5 10 -11 10 -5 0 -7
-4 -4 -10z"/>
<path d="M833 1527 c7 -20 -11 -27 -40 -16 -17 6 -21 5 -16 -6 6 -17 16 -18
62 -9 37 8 39 14 10 33 -19 11 -21 11 -16 -2z"/>
<path d="M1331 1521 c-10 -18 -9 -21 9 -21 22 0 25 7 11 29 -7 11 -11 9 -20
-8z"/>
<path d="M1910 1530 c0 -5 7 -10 15 -10 8 0 15 5 15 10 0 6 -7 10 -15 10 -8 0
-15 -4 -15 -10z"/>
<path d="M1420 1519 c0 -5 5 -7 10 -4 6 3 10 8 10 11 0 2 -4 4 -10 4 -5 0 -10
-5 -10 -11z"/>
<path d="M1850 1520 c0 -5 7 -10 15 -10 8 0 15 5 15 10 0 6 -7 10 -15 10 -8 0
-15 -4 -15 -10z"/>
<path d="M732 1504 c-14 -16 -5 -18 17 -5 7 5 9 11 5 14 -5 3 -15 -1 -22 -9z"/>
<path d="M1000 1490 c-6 -11 -7 -20 -3 -20 5 0 14 9 21 20 7 11 8 20 2 20 -5
0 -14 -9 -20 -20z"/>
<path d="M670 1490 c0 -5 5 -10 10 -10 6 0 10 5 10 10 0 6 -4 10 -10 10 -5 0
-10 -4 -10 -10z"/>
<path d="M1050 1490 c0 -5 7 -10 15 -10 8 0 15 5 15 10 0 6 -7 10 -15 10 -8 0
-15 -4 -15 -10z"/>
<path d="M857 1484 c-8 -8 1 -24 14 -24 5 0 9 7 9 15 0 15 -12 20 -23 9z"/>
<path d="M1440 1480 c0 -5 5 -10 10 -10 6 0 10 5 10 10 0 6 -4 10 -10 10 -5 0
-10 -4 -10 -10z"/>
<path d="M1696 1473 c-15 -4 -16 -7 -5 -14 11 -7 9 -9 -8 -9 -12 0 -27 -9 -34
-21 -12 -22 -1 -43 17 -31 9 7 59 83 52 81 -2 -1 -12 -4 -22 -6z"/>
<path d="M1807 1466 c-10 -8 -14 -17 -8 -20 5 -3 11 0 14 6 3 10 8 10 21 -1
13 -11 20 -11 29 -2 9 9 9 14 -3 21 -20 13 -32 12 -53 -4z"/>
<path d="M830 1461 c0 -5 7 -12 16 -15 14 -5 15 -4 4 9 -14 17 -20 19 -20 6z"/>
<path d="M670 1450 c20 -13 33 -13 25 0 -3 6 -14 10 -23 10 -15 0 -15 -2 -2
-10z"/>
<path d="M1165 1450 c-3 -5 -2 -10 4 -10 5 0 13 5 16 10 3 6 2 10 -4 10 -5 0
-13 -4 -16 -10z"/>
<path d="M1725 1450 c3 -5 11 -10 16 -10 6 0 7 5 4 10 -3 6 -11 10 -16 10 -6
0 -7 -4 -4 -10z"/>
<path d="M1520 1442 c0 -5 7 -16 16 -23 14 -12 16 -11 13 5 -4 20 -29 35 -29
18z"/>
<path d="M1877 1424 c-19 -25 -17 -54 3 -54 14 0 13 13 -2 28 -9 9 -9 12 0 12
7 0 12 -4 12 -10 0 -5 5 -10 10 -10 6 0 10 14 10 30 0 36 -9 38 -33 4z"/>
<path d="M1085 1421 c-6 -11 9 -23 19 -14 9 9 7 23 -3 23 -6 0 -12 -4 -16 -9z"/>
<path d="M1696 1414 c-9 -24 -8 -26 14 -14 11 6 18 15 15 21 -9 14 -22 11 -29
-7z"/>
<path d="M1825 1420 c3 -5 11 -10 16 -10 6 0 7 5 4 10 -3 6 -11 10 -16 10 -6
0 -7 -4 -4 -10z"/>
<path d="M780 1410 c20 -13 40 -13 40 0 0 6 -12 10 -27 10 -22 0 -25 -2 -13
-10z"/>
<path d="M1807 1405 c6 -11 8 -26 6 -32 -5 -15 13 -17 22 -3 3 5 -4 20 -16 32
-19 20 -20 21 -12 3z"/>
<path d="M870 1400 c0 -5 5 -10 10 -10 6 0 10 5 10 10 0 6 -4 10 -10 10 -5 0
-10 -4 -10 -10z"/>
<path d="M1512 1398 c2 -6 10 -14 16 -16 7 -2 10 2 6 12 -7 18 -28 22 -22 4z"/>
<path d="M1293 1384 c-7 -7 -13 -23 -13 -36 1 -22 1 -22 15 -4 8 10 12 22 10
27 -3 4 0 9 7 11 7 3 8 7 3 10 -6 3 -16 0 -22 -8z"/>
<path d="M1050 1375 c-7 -8 -8 -15 -2 -15 5 0 15 7 22 15 7 8 8 15 2 15 -5 0
-15 -7 -22 -15z"/>
<path d="M1934 1374 c-18 -14 -18 -15 6 -10 14 3 19 3 13 0 -7 -3 -13 -13 -13
-21 0 -13 3 -13 15 -3 16 13 21 50 7 50 -5 0 -17 -7 -28 -16z"/>
<path d="M950 1371 c0 -5 6 -11 13 -14 8 -3 14 1 14 9 0 8 -6 14 -14 14 -7 0
-13 -4 -13 -9z"/>
<path d="M785 1360 c-3 -5 -2 -10 4 -10 5 0 13 5 16 10 3 6 2 10 -4 10 -5 0
-13 -4 -16 -10z"/>
<path d="M1735 1360 c-3 -5 -1 -10 4 -10 6 0 11 5 11 10 0 6 -2 10 -4 10 -3 0
-8 -4 -11 -10z"/>
<path d="M1887 1354 c-8 -8 1 -24 14 -24 5 0 9 7 9 15 0 15 -12 20 -23 9z"/>
<path d="M781 1339 c-33 -13 -24 -17 28 -11 29 3 39 7 30 13 -17 11 -27 10
-58 -2z"/>
<path d="M935 1340 c3 -5 11 -10 16 -10 6 0 7 5 4 10 -3 6 -11 10 -16 10 -6 0
-7 -4 -4 -10z"/>
<path d="M430 1335 c0 -2 14 -11 30 -20 18 -9 30 -11 30 -5 0 6 -12 15 -26 20
-29 11 -34 12 -34 5z"/>
<path d="M1068 1333 c6 -2 18 -2 25 0 6 3 1 5 -13 5 -14 0 -19 -2 -12 -5z"/>
<path d="M1966 1323 c-4 -9 -2 -20 4 -25 5 -4 8 -5 5 -2 -2 4 0 15 6 25 6 11
6 19 0 19 -5 0 -12 -8 -15 -17z"/>
<path d="M514 1319 c-10 -17 44 -32 78 -22 l33 9 -53 11 c-29 5 -55 6 -58 2z"/>
<path d="M920 1312 c0 -18 18 -42 31 -42 3 0 4 11 2 24 -6 29 -33 44 -33 18z"/>
<path d="M1230 1320 c0 -5 5 -10 11 -10 5 0 7 5 4 10 -3 6 -8 10 -11 10 -2 0
-4 -4 -4 -10z"/>
<path d="M1455 1320 c3 -5 14 -10 23 -10 15 0 15 2 2 10 -20 13 -33 13 -25 0z"/>
<path d="M700 1316 c0 -2 9 -6 20 -9 11 -3 20 -1 20 4 0 5 -9 9 -20 9 -11 0
-20 -2 -20 -4z"/>
<path d="M790 1310 c0 -5 9 -10 20 -10 11 0 20 5 20 10 0 6 -9 10 -20 10 -11
0 -20 -4 -20 -10z"/>
<path d="M854 1298 c-7 -12 25 -42 35 -32 3 3 -3 12 -13 20 -11 8 -15 14 -9
14 5 0 18 -9 28 -20 10 -11 23 -20 29 -20 13 1 -41 50 -54 50 -5 0 -12 -5 -16
-12z"/>
<path d="M1866 1301 c-3 -5 1 -11 9 -15 8 -3 15 -1 15 4 0 13 -18 22 -24 11z"/>
<path d="M591 1286 l-44 -12 38 -24 c23 -14 59 -25 93 -28 49 -4 54 -3 50 14
-2 11 -13 20 -26 22 -23 3 -23 4 -6 23 17 18 16 19 -22 18 -21 -1 -59 -7 -83
-13z"/>
<path d="M1010 1280 c0 -5 5 -10 11 -10 5 0 7 5 4 10 -3 6 -8 10 -11 10 -2 0
-4 -4 -4 -10z"/>
<path d="M1920 1270 c0 -11 -5 -20 -11 -20 -5 0 -7 -5 -4 -10 4 -7 12 -7 25 0
27 14 34 12 20 -5 -7 -9 -11 -18 -8 -20 3 -3 11 1 17 9 9 11 9 20 2 34 -15 29
-41 36 -41 12z"/>
<path d="M766 1249 c-19 -19 -19 -19 0 -21 77 -6 88 -2 59 22 -12 10 -15 10
-15 -4 0 -9 -7 -16 -15 -16 -8 0 -15 5 -15 10 0 6 5 10 10 10 6 0 10 5 10 10
0 15 -13 11 -34 -11z"/>
<path d="M830 1260 c0 -19 41 -42 65 -36 38 10 30 21 -20 33 -25 6 -45 7 -45
3z"/>
<path d="M1744 1241 c3 -5 -5 -12 -19 -15 -32 -8 -35 -46 -4 -46 11 0 18 4 15
9 -3 5 1 14 9 21 17 14 20 40 4 40 -5 0 -8 -4 -5 -9z"/>
<path d="M1815 1240 c-3 -5 1 -10 10 -10 9 0 13 5 10 10 -3 6 -8 10 -10 10 -2
0 -7 -4 -10 -10z"/>
<path d="M792 1203 c-13 -3 -21 -10 -19 -16 5 -15 99 -29 111 -17 7 7 2 10
-12 10 -15 0 -20 5 -16 15 6 15 -13 18 -64 8z m45 -9 c-3 -3 -12 -4 -19 -1 -8
3 -5 6 6 6 11 1 17 -2 13 -5z"/>
<path d="M1806 1195 c-23 -17 -13 -34 11 -19 19 12 29 34 16 34 -4 0 -17 -7
-27 -15z"/>
<path d="M685 1169 c-4 -11 -4 -23 -1 -26 8 -9 78 11 77 22 -1 6 -5 10 -10 10
-5 0 -13 3 -17 8 -15 14 -43 7 -49 -14z"/>
<path d="M1060 1165 c-13 -14 -18 -25 -12 -25 7 0 12 5 12 12 0 6 3 8 7 5 7
-8 33 11 33 24 0 16 -16 9 -40 -16z"/>
<path d="M1158 1165 c-6 -14 -15 -25 -20 -25 -5 0 -6 5 -2 12 5 7 3 8 -5 3 -9
-5 -10 -10 -2 -18 8 -8 20 -3 43 21 26 25 29 32 15 32 -10 0 -23 -11 -29 -25z"/>
<path d="M1950 1174 c15 -17 30 -18 30 -1 0 7 -9 13 -21 14 -17 2 -18 -1 -9
-13z"/>
<path d="M1322 1145 c0 -19 4 -32 9 -29 5 3 9 18 9 35 0 16 -4 29 -9 29 -5 0
-9 -16 -9 -35z"/>
<path d="M1905 1151 c-3 -5 0 -13 6 -17 8 -5 10 -2 5 7 -4 8 -1 6 7 -4 15 -18
34 -7 22 13 -8 13 -32 13 -40 1z"/>
<path d="M1186 1134 c-5 -14 -4 -15 9 -4 17 14 19 20 6 20 -5 0 -12 -7 -15
-16z"/>
<path d="M1756 1141 c-4 -7 -5 -15 -2 -18 9 -9 19 4 14 18 -4 11 -6 11 -12 0z"/>
<path d="M795 1130 c-3 -5 -5 -10 -3 -11 2 0 17 -3 33 -5 28 -4 29 -3 11 11
-23 18 -33 19 -41 5z"/>
<path d="M708 1123 c7 -3 16 -2 19 1 4 3 -2 6 -13 5 -11 0 -14 -3 -6 -6z"/>
<path d="M1554 1100 c-5 -23 -11 -30 -23 -25 -12 4 -13 3 -5 -5 8 -8 19 -7 40
1 16 7 32 12 36 11 4 -1 5 5 2 13 -5 11 -2 13 11 9 13 -5 16 -3 13 7 -2 8 -19
15 -36 17 -29 3 -33 0 -38 -28z"/>
<path d="M1230 1110 c0 -5 5 -10 10 -10 6 0 10 5 10 10 0 6 -4 10 -10 10 -5 0
-10 -4 -10 -10z"/>
<path d="M1280 1109 c0 -5 5 -7 10 -4 6 3 10 8 10 11 0 2 -4 4 -10 4 -5 0 -10
-5 -10 -11z"/>
<path d="M1464 1105 c-10 -8 -14 -15 -8 -15 6 0 17 7 24 15 16 19 9 19 -16 0z"/>
<path d="M1697 1100 c3 -11 9 -17 14 -14 14 8 10 34 -5 34 -9 0 -12 -7 -9 -20z"/>
<path d="M1914 1103 c-11 -2 -28 -17 -37 -32 -22 -37 -21 -40 3 -34 15 4 19
11 14 25 -4 14 -3 18 6 13 6 -4 20 2 31 14 11 12 16 20 12 20 -4 -1 -17 -4
-29 -6z"/>
<path d="M676 1091 c-3 -5 1 -11 9 -15 8 -3 15 -1 15 4 0 13 -18 22 -24 11z"/>
<path d="M1485 1090 c-3 -5 -1 -10 4 -10 6 0 11 5 11 10 0 6 -2 10 -4 10 -3 0
-8 -4 -11 -10z"/>
<path d="M1963 1088 c-6 -7 -15 -23 -21 -35 -11 -19 -9 -21 11 -16 22 5 22 5
2 -10 -29 -23 -6 -21 34 4 l33 20 -23 25 c-26 28 -24 27 -36 12z"/>
<path d="M586 1069 c-14 -11 -24 -25 -21 -30 8 -12 77 -11 112 2 l28 11 -29
15 c-23 12 -34 13 -48 4 -10 -6 -21 -11 -25 -11 -5 0 -1 4 7 10 8 5 12 11 9
15 -3 3 -18 -4 -33 -16z"/>
<path d="M1764 1063 c2 -17 11 -30 26 -35 27 -10 35 -4 44 35 5 20 3 27 -8 27
-10 0 -13 -6 -9 -17 6 -17 5 -17 -14 0 -28 24 -42 21 -39 -10z"/>
<path d="M1125 1070 c-3 -5 -1 -10 4 -10 6 0 11 5 11 10 0 6 -2 10 -4 10 -3 0
-8 -4 -11 -10z"/>
<path d="M1180 1076 c0 -2 7 -6 15 -10 8 -3 15 -1 15 4 0 6 -7 10 -15 10 -8 0
-15 -2 -15 -4z"/>
<path d="M1220 1070 c0 -5 5 -10 10 -10 6 0 10 5 10 10 0 6 -4 10 -10 10 -5 0
-10 -4 -10 -10z"/>
<path d="M1646 1071 c-4 -7 -5 -15 -2 -18 9 -9 19 4 14 18 -4 11 -6 11 -12 0z"/>
<path d="M1580 1054 c-10 -12 -8 -14 14 -14 28 0 35 14 12 23 -8 3 -20 -1 -26
-9z"/>
<path d="M896 1034 c-4 -9 1 -14 14 -14 23 0 27 15 6 23 -8 3 -17 -1 -20 -9z"/>
<path d="M975 1040 c3 -5 10 -10 16 -10 5 0 9 5 9 10 0 6 -7 10 -16 10 -8 0
-12 -4 -9 -10z"/>
<path d="M1115 1020 c3 -5 13 -10 21 -10 8 0 12 5 9 10 -3 6 -13 10 -21 10 -8
0 -12 -4 -9 -10z"/>
<path d="M1165 1020 c3 -5 13 -10 21 -10 8 0 14 5 14 10 0 6 -9 10 -21 10 -11
0 -17 -4 -14 -10z"/>
<path d="M934 979 c-19 -21 -19 -21 9 -8 15 7 27 16 27 21 0 14 -16 9 -36 -13z"/>
<path d="M1006 993 c-12 -12 -6 -26 7 -15 17 14 38 -10 26 -29 -12 -19 -11
-29 3 -29 6 0 8 3 5 7 -4 3 0 17 9 31 8 13 14 25 12 26 -9 8 -56 15 -62 9z"/>
<path d="M1385 980 c-23 -26 -8 -26 25 0 18 14 21 20 9 20 -9 0 -24 -9 -34
-20z"/>
<path d="M1460 985 c-11 -13 -7 -15 25 -15 32 0 36 2 25 15 -7 8 -18 15 -25
15 -7 0 -18 -7 -25 -15z"/>
<path d="M1185 980 c-3 -5 -1 -10 4 -10 6 0 11 5 11 10 0 6 -2 10 -4 10 -3 0
-8 -4 -11 -10z"/>
<path d="M1825 970 c-3 -5 3 -10 14 -10 12 0 21 5 21 10 0 6 -6 10 -14 10 -8
0 -18 -4 -21 -10z"/>
<path d="M1113 938 c-32 -33 -20 -38 14 -6 22 21 24 21 17 3 -7 -18 -6 -18 9
-6 9 7 17 19 17 26 0 21 -29 13 -57 -17z"/>
<path d="M1213 958 c-6 -7 -14 -20 -19 -28 -7 -13 -5 -13 16 1 25 17 38 39 22
39 -5 0 -14 -6 -19 -12z"/>
<path d="M1540 960 c0 -5 5 -10 10 -10 6 0 10 5 10 10 0 6 -4 10 -10 10 -5 0
-10 -4 -10 -10z"/>
<path d="M1810 930 c0 -5 4 -10 9 -10 6 0 13 5 16 10 3 6 -1 10 -9 10 -9 0
-16 -4 -16 -10z"/>
<path d="M1250 919 c-8 -4 -30 -14 -47 -21 -38 -15 -52 -38 -23 -38 28 0 70
21 70 36 0 7 6 14 13 17 6 2 10 7 7 9 -3 3 -12 2 -20 -3z"/>
<path d="M860 899 c-27 -15 -29 -18 -10 -13 14 3 32 12 40 20 19 19 12 17 -30
-7z"/>
<path d="M1530 909 c0 -13 14 -17 35 -9 17 6 16 7 -8 12 -15 3 -27 2 -27 -3z"/>
<path d="M1830 911 c0 -10 30 -24 37 -17 3 3 2 9 -2 15 -8 13 -35 15 -35 2z"/>
<path d="M1490 906 c0 -2 7 -9 15 -16 12 -10 15 -10 15 4 0 9 -7 16 -15 16 -8
0 -15 -2 -15 -4z"/>
<path d="M1680 900 c0 -5 7 -7 15 -4 8 4 15 8 15 10 0 2 -7 4 -15 4 -8 0 -15
-4 -15 -10z"/>
<path d="M1441 891 c-12 -8 -9 -11 12 -17 30 -7 43 -1 32 15 -8 13 -25 14 -44
2z"/>
<path d="M1591 873 c-31 -15 -32 -18 -15 -30 17 -13 17 -13 0 -13 -15 0 -16
-3 -6 -15 19 -23 26 -19 40 25 7 21 17 37 22 34 6 -4 5 -11 -1 -17 -6 -6 -11
-20 -11 -31 1 -16 5 -12 15 13 14 31 13 51 -3 51 -4 0 -22 -8 -41 -17z"/>
<path d="M1756 871 c-4 -6 -20 -8 -36 -4 -19 3 -30 1 -30 -6 0 -6 7 -11 16
-11 8 0 12 -4 9 -10 -3 -5 3 -10 15 -10 13 0 19 4 14 11 -5 9 1 10 20 5 23 -6
27 -4 24 10 -4 20 -24 29 -32 15z"/>
<path d="M1172 837 c-23 -11 -41 -25 -39 -30 1 -5 6 -8 10 -8 4 1 23 1 43 1
19 0 33 4 30 9 -3 5 -15 7 -26 4 -11 -3 -20 -1 -20 5 0 5 16 13 35 16 19 4 37
11 40 16 10 17 -28 10 -73 -13z"/>
<path d="M1660 846 c0 -2 7 -7 16 -10 8 -3 12 -2 9 4 -6 10 -25 14 -25 6z"/>
<path d="M1096 826 c3 -8 -3 -16 -16 -19 -14 -4 -19 -10 -14 -18 5 -9 2 -10
-9 -6 -10 3 -17 2 -17 -3 0 -25 50 -2 74 35 16 24 16 25 -3 25 -13 0 -18 -5
-15 -14z"/>
<path d="M1292 832 c-13 -2 -26 -10 -29 -18 -9 -24 6 -29 22 -8 15 19 15 19 8
0 -5 -16 -3 -18 11 -13 10 4 26 7 37 7 12 0 19 7 19 20 0 20 -6 21 -68 12z"/>
<path d="M1395 820 c-4 -6 5 -10 20 -10 15 0 24 4 20 10 -3 6 -12 10 -20 10
-8 0 -17 -4 -20 -10z"/>
<path d="M1847 799 c-8 -28 -1 -39 24 -39 24 0 24 15 0 41 -18 20 -18 20 -24
-2z"/>
<path d="M1028 803 c7 -3 16 -2 19 1 4 3 -2 6 -13 5 -11 0 -14 -3 -6 -6z"/>
<path d="M1531 801 c-11 -7 -9 -10 8 -16 25 -8 36 -2 26 14 -8 13 -15 14 -34
2z"/>
<path d="M1665 800 c-3 -5 -1 -10 4 -10 6 0 11 5 11 10 0 6 -2 10 -4 10 -3 0
-8 -4 -11 -10z"/>
<path d="M907 782 c-19 -20 -23 -37 -7 -27 10 6 33 45 27 45 -2 0 -11 -8 -20
-18z"/>
<path d="M1762 788 c-6 -6 -12 -17 -12 -24 0 -20 -27 -35 -72 -41 -23 -2 -48
-9 -54 -14 -6 -5 -19 -7 -28 -3 -10 4 -16 1 -16 -7 0 -10 -3 -10 -12 -1 -17
17 -65 15 -72 -4 -6 -15 -9 -64 -3 -64 1 0 24 11 51 25 27 14 55 25 63 25 7 0
13 4 13 9 0 5 17 10 38 10 20 1 48 2 61 2 15 1 20 4 12 9 -18 10 16 22 43 15
15 -5 17 -4 8 3 -11 7 -10 11 5 16 16 7 16 9 -7 22 l-25 14 29 -6 c22 -5 28
-4 24 7 -6 19 -30 23 -46 7z"/>
<path d="M1697 764 c-34 -18 -29 -29 8 -20 14 4 25 13 25 21 0 18 2 18 -33 -1z"/>
<path d="M1458 753 c7 -3 16 -2 19 1 4 3 -2 6 -13 5 -11 0 -14 -3 -6 -6z"/>
<path d="M1111 714 c-12 -20 -25 -34 -28 -30 -3 3 2 15 12 26 10 11 15 23 12
26 -7 7 -67 -34 -67 -45 0 -31 88 -52 110 -26 11 13 11 18 1 24 -7 5 -10 19
-7 34 7 38 -8 33 -33 -9z"/>
<path d="M1320 725 c32 -18 40 -18 40 0 0 10 -10 15 -32 15 l-33 -1 25 -14z"/>
<path d="M1530 730 c0 -5 9 -10 20 -10 11 0 20 5 20 10 0 6 -9 10 -20 10 -11
0 -20 -4 -20 -10z"/>
<path d="M1200 691 c0 -5 7 -12 16 -15 14 -5 15 -4 4 9 -14 17 -20 19 -20 6z"/>
<path d="M1312 665 c13 -30 32 -28 36 3 3 18 -2 22 -22 22 -24 0 -25 -2 -14
-25z"/>
<path d="M1280 655 c27 -29 37 -27 20 4 -6 12 -18 21 -27 21 -13 0 -12 -5 7
-25z"/>
<path d="M1177 664 c-12 -12 4 -24 31 -24 26 1 26 1 8 15 -22 17 -30 18 -39 9z"/>
<path d="M1240 666 c0 -2 8 -10 18 -17 15 -13 16 -12 3 4 -13 16 -21 21 -21
13z"/>
<path d="M1096 625 c4 -8 7 -15 9 -15 1 0 8 7 15 15 10 13 9 15 -8 15 -15 0
-20 -5 -16 -15z"/>
</g>
</svg>
